<svg viewBox="0 0 230 43" xmlns="http://www.w3.org/2000/svg" data-logo="logo">
        <g transform="translate(0, 1) rotate(0)" id="logogram" style="opacity: 1;"><path fill="#572CF2" d="M37.5569 2.04585C38.4821 1.08338 39.7385 0.542663 41.0469 0.542664C46.9335 0.542664 52.4811 0.542667 57.9442 0.542678C68.932 0.542701 74.4342 14.3629 66.6646 22.4456L49.7407 40.0517C48.9637 40.86 47.6352 40.2875 47.6352 39.1444V23.6376L49.591 21.6029C51.145 19.9864 50.0444 17.2223 47.8468 17.2223H22.9684L37.5569 2.04585Z"></path><path fill="#5934DF" d="M33.0467 38.8142C32.1215 39.7767 30.8651 40.3174 29.5567 40.3174C23.6701 40.3174 18.1225 40.3174 12.6594 40.3174C1.67159 40.3173 -3.83061 26.4972 3.93897 18.4144L20.8629 0.808361C21.6399 8.48472e-05 22.9684 0.57254 22.9684 1.71562L22.9684 17.2223L21.0126 19.2571C19.4586 20.8737 20.5592 23.6377 22.7568 23.6377L47.6352 23.6376L33.0467 38.8142Z"></path></g>
        <g transform="translate(77, 1.5)" id="logotype" style="opacity: 1;"><path d="M13.31 33L8.19 33L8.19 13.89L12.94 13.89L13.19 18.64L12.82 18.64Q13.26 16.88 14.13 15.77Q14.99 14.66 16.15 14.13Q17.31 13.60 18.60 13.60L18.60 13.60Q20.66 13.60 21.93 14.91Q23.19 16.22 23.79 18.95L23.79 18.95L23.19 18.95Q23.62 17.12 24.59 15.94Q25.55 14.75 26.88 14.18Q28.20 13.60 29.65 13.60L29.65 13.60Q31.41 13.60 32.79 14.37Q34.16 15.14 34.96 16.59Q35.75 18.03 35.75 20.11L35.75 20.11L35.75 33L30.63 33L30.63 21.09Q30.63 19.46 29.75 18.68Q28.87 17.89 27.58 17.89L27.58 17.89Q26.63 17.89 25.92 18.31Q25.21 18.73 24.82 19.48Q24.44 20.23 24.44 21.24L24.44 21.24L24.44 33L19.48 33L19.48 20.95Q19.48 19.55 18.66 18.72Q17.83 17.89 16.51 17.89L16.51 17.89Q15.60 17.89 14.88 18.30Q14.15 18.71 13.73 19.51Q13.31 20.30 13.31 21.45L13.31 21.45L13.31 33ZM44.43 33.24L44.43 33.24Q42.45 33.24 40.96 32.38Q39.48 31.51 38.67 29.90Q37.85 28.28 37.85 26.04L37.85 26.04L37.85 13.89L42.98 13.89L42.98 25.16Q42.98 26.93 43.90 27.94Q44.83 28.95 46.43 28.95L46.43 28.95Q47.53 28.95 48.36 28.48Q49.20 28.01 49.67 27.11Q50.14 26.22 50.14 24.95L50.14 24.95L50.14 13.89L55.27 13.89L55.27 33L50.43 33L50.36 28.23L50.65 28.23Q49.90 30.64 48.36 31.94Q46.81 33.24 44.43 33.24ZM62.49 21.94L62.49 21.94L62.49 33L57.37 33L57.37 13.89L62.20 13.89L62.29 18.66L61.98 18.66Q62.73 16.27 64.26 14.96Q65.79 13.65 68.22 13.65L68.22 13.65Q70.20 13.65 71.67 14.52Q73.14 15.38 73.96 17.00Q74.78 18.61 74.78 20.85L74.78 20.85L74.78 33L69.66 33L69.66 21.74Q69.66 19.96 68.74 18.95Q67.83 17.94 66.20 17.94L66.20 17.94Q65.13 17.94 64.28 18.41Q63.43 18.88 62.96 19.77Q62.49 20.66 62.49 21.94ZM82.21 33.38L82.21 33.38Q80.40 33.38 78.96 32.74Q77.51 32.09 76.69 30.82Q75.86 29.55 75.86 27.65L75.86 27.65Q75.86 26.06 76.45 24.98Q77.04 23.91 78.05 23.26Q79.07 22.61 80.36 22.27Q81.65 21.93 83.07 21.79L83.07 21.79Q84.73 21.62 85.74 21.47Q86.76 21.33 87.23 21.01Q87.70 20.70 87.70 20.08L87.70 20.08L87.70 19.99Q87.70 19.17 87.36 18.61Q87.02 18.05 86.35 17.75Q85.68 17.45 84.71 17.45L84.71 17.45Q83.72 17.45 82.98 17.75Q82.25 18.05 81.79 18.54Q81.33 19.04 81.10 19.65L81.10 19.65L76.40 18.87Q76.90 17.21 78.04 16.05Q79.19 14.88 80.89 14.27Q82.59 13.65 84.71 13.65L84.71 13.65Q86.26 13.65 87.72 14.02Q89.17 14.39 90.32 15.16Q91.48 15.93 92.15 17.16Q92.83 18.39 92.83 20.13L92.83 20.13L92.83 33L87.97 33L87.97 30.35L87.80 30.35Q87.34 31.24 86.57 31.91Q85.80 32.59 84.72 32.98Q83.63 33.38 82.21 33.38ZM83.67 29.77L83.67 29.77Q84.88 29.77 85.79 29.29Q86.71 28.81 87.22 27.99Q87.73 27.17 87.73 26.16L87.73 26.16L87.73 24.10Q87.51 24.27 87.05 24.40Q86.59 24.54 86.03 24.64Q85.46 24.75 84.91 24.83Q84.37 24.92 83.94 24.97L83.94 24.97Q83.00 25.10 82.28 25.41Q81.57 25.72 81.17 26.22Q80.78 26.73 80.78 27.51L80.78 27.51Q80.78 28.25 81.15 28.75Q81.53 29.26 82.17 29.51Q82.81 29.77 83.67 29.77ZM100.26 33L95.05 33L95.05 7.54L104.98 7.54Q107.88 7.54 109.92 8.64Q111.95 9.74 113.02 11.68Q114.09 13.62 114.09 16.13L114.09 16.13Q114.09 18.66 113.00 20.58Q111.91 22.51 109.86 23.59Q107.80 24.68 104.86 24.68L104.86 24.68L98.46 24.68L98.46 20.47L104.02 20.47Q105.63 20.47 106.66 19.92Q107.69 19.36 108.20 18.39Q108.70 17.41 108.70 16.13L108.70 16.13Q108.70 14.85 108.20 13.88Q107.69 12.90 106.65 12.37Q105.61 11.84 104.00 11.84L104.00 11.84L100.26 11.84L100.26 33ZM120.66 33.38L120.66 33.38Q118.85 33.38 117.41 32.74Q115.96 32.09 115.13 30.82Q114.31 29.55 114.31 27.65L114.31 27.65Q114.31 26.06 114.89 24.98Q115.48 23.91 116.50 23.26Q117.52 22.61 118.81 22.27Q120.10 21.93 121.52 21.79L121.52 21.79Q123.17 21.62 124.19 21.47Q125.21 21.33 125.68 21.01Q126.15 20.70 126.15 20.08L126.15 20.08L126.15 19.99Q126.15 19.17 125.81 18.61Q125.46 18.05 124.80 17.75Q124.13 17.45 123.16 17.45L123.16 17.45Q122.17 17.45 121.43 17.75Q120.70 18.05 120.24 18.54Q119.77 19.04 119.55 19.65L119.55 19.65L114.85 18.87Q115.35 17.21 116.49 16.05Q117.64 14.88 119.34 14.27Q121.04 13.65 123.16 13.65L123.16 13.65Q124.71 13.65 126.17 14.02Q127.62 14.39 128.77 15.16Q129.93 15.93 130.60 17.16Q131.28 18.39 131.28 20.13L131.28 20.13L131.28 33L126.42 33L126.42 30.35L126.25 30.35Q125.79 31.24 125.02 31.91Q124.25 32.59 123.17 32.98Q122.08 33.38 120.66 33.38ZM122.12 29.77L122.12 29.77Q123.33 29.77 124.24 29.29Q125.16 28.81 125.67 27.99Q126.18 27.17 126.18 26.16L126.18 26.16L126.18 24.10Q125.96 24.27 125.50 24.40Q125.04 24.54 124.47 24.64Q123.91 24.75 123.36 24.83Q122.82 24.92 122.39 24.97L122.39 24.97Q121.45 25.10 120.73 25.41Q120.01 25.72 119.62 26.22Q119.23 26.73 119.23 27.51L119.23 27.51Q119.23 28.25 119.60 28.75Q119.98 29.26 120.62 29.51Q121.26 29.77 122.12 29.77ZM133.24 39.77L133.24 39.77L134.42 35.91L135.05 36.06Q136.08 36.33 136.88 36.21Q137.68 36.09 138.17 35.56Q138.66 35.03 138.76 34.08L138.76 34.08L138.90 33.05L131.72 13.89L137.17 13.89L140.38 23.81Q140.96 25.69 141.33 27.57Q141.70 29.45 142.18 31.50L142.18 31.50L140.98 31.50Q141.44 29.45 141.90 27.56Q142.36 25.67 142.98 23.81L142.98 23.81L146.33 13.89L151.71 13.89L143.60 35.26Q143.01 36.79 142.11 37.92Q141.20 39.05 139.85 39.67Q138.50 40.28 136.59 40.28L136.59 40.28Q135.56 40.28 134.67 40.14Q133.79 39.99 133.24 39.77Z" fill="#111111"></path></g>
        
      </svg>