<svg xmlns="http://www.w3.org/2000/svg" width="32" height="32" fill="none"><path fill="#000100" d="M0 0h32v32H0z"/><path fill="url(#a)" d="M15.11 5.55a3 3 0 0 0-1.82 1.3l-.05.08-.43.72-.07.11-.5.85-.05.09-1.29 2.18-.04.07-.47.8-.06.1-.46.78-.07.11-1.63 2.76-.07.11-.38.66-.05.08-.73 1.24-.35.6-.4.67-.05.09L5.1 20.7l-.11.18-.14.23-.07.13-.33.55-.04.07v.01a1.26 1.26 0 0 0-.14.47 1.31 1.31 0 0 0 1.24 1.4h1.5l.05-.06.04-.06.87-1.21.05-.08.77-1.07.05-.07.4-.57.05-.06.24-.34a1.52 1.52 0 0 1 1.39-.62 1.5 1.5 0 0 1 .64.2 1.47 1.47 0 0 1 .73 1.27 1.44 1.44 0 0 1-.27.84l-.63.88-.05.07-.32.45-.06.08-.08.12-.12.16-.05.08h2.13a2.32 2.32 0 0 0 1.77-.96l1.18-1.63.77-1.08 1.3-1.8a1.24 1.24 0 0 1 .55-.43l.08-.03a1.3 1.3 0 0 1 .3-.06 1.28 1.28 0 0 1 1.15.54l.11.2a1.13 1.13 0 0 1 .1.41 1.19 1.19 0 0 1-.23.77l-.03.05-.57.8-.7.98-.27.37a1.22 1.22 0 0 0-.2.5 1.05 1.05 0 0 0-.02.23v.06a1.17 1.17 0 0 0 .14.43l.02.05.07.1a1.44 1.44 0 0 0 .1.11l.05.06.01.01a1.8 1.8 0 0 0 .14.1c0 .02.02.03.04.03a1 1 0 0 0 .08.05l.07.04a1.25 1.25 0 0 0 .5.1h6.9c.1 0 .2-.01.29-.03l.06-.02a1.27 1.27 0 0 0 .27-.1.57.57 0 0 0 .07-.03 1.21 1.21 0 0 0 .26-.19l.08-.07a.92.92 0 0 0 .15-.19 1.55 1.55 0 0 0 .09-.17l.02-.05a1.22 1.22 0 0 0 .08-.26v-.04l.02-.08v-.08a1.32 1.32 0 0 0-.2-.74l-1.6-2.64-.06-.1-.2-.32-.33-.54v-.01l-.05-.08-1.3-2.15-.07-.1-.04-.06-.8-1.32-.04-.07-.2-.34-.1-.14-.1-.16-.53-.9-.13-.2-.09-.14-2.17-3.57-.04-.07-.72-1.19-.05-.07-.4-.65a2.65 2.65 0 0 0-.3-.4 2.96 2.96 0 0 0-.97-.74 3.04 3.04 0 0 0-1.3-.3c-.25 0-.5.04-.74.1Z"/><path fill="url(#b)" d="M19 16.3a5.45 5.45 0 0 0-.83 1.56l-.04.15a1.36 1.36 0 0 1 .28-.16 1.24 1.24 0 0 1 .38-.08h.1a1.28 1.28 0 0 1 1.05.54c.04.06.08.13.1.2a1.24 1.24 0 0 1 .09.27 1.19 1.19 0 0 1-.2.91l-.04.05-.57.79-.7.99-.27.37a1.23 1.23 0 0 0-.2.42 1.06 1.06 0 0 0-.02.31v.06a1.17 1.17 0 0 0 .16.47.93.93 0 0 0 .07.1 1.5 1.5 0 0 0 .1.12l.05.06h.01a1.94 1.94 0 0 0 .09.08 1 1 0 0 0 .17.1l.07.04a1.25 1.25 0 0 0 .5.1h6.9c.1 0 .2 0 .28-.02l.07-.02a1.32 1.32 0 0 0 .34-.13l.16-.1.03-.03a1.29 1.29 0 0 0 .2-.2 2.43 2.43 0 0 0 .12-.17c.03-.03.05-.08.07-.12l.02-.05a1.21 1.21 0 0 0 .09-.3v-.08l.01-.09a1.32 1.32 0 0 0-.2-.73l-1.6-2.64-.06-.1-.2-.32-.33-.54v-.02l-.05-.07-1.3-2.15-.12-.07-.07-.04a4.94 4.94 0 0 0-2.46-.67c-1.03 0-1.76.57-2.26 1.2Z"/><path fill="#fff" d="M12.29 21.08c0 .29-.09.58-.27.84l-1.31 1.84H7l2.52-3.53a1.54 1.54 0 0 1 2.1-.36c.43.28.66.74.66 1.2Z"/><path fill="#000" d="M11.16 21.25a.56.56 0 0 1-.57.55.56.56 0 0 1-.57-.56.56.56 0 0 1 .57-.55.56.56 0 0 1 .57.56Z"/><defs><linearGradient id="a" x1="15.23" x2="19.3" y1="25.78" y2="6.11" gradientUnits="userSpaceOnUse"><stop stop-color="#6522F4"/><stop offset=".55" stop-color="#9B6BFF"/><stop offset="1" stop-color="#A585FF"/></linearGradient><linearGradient id="b" x1="22.59" x2="24.8" y1="24.71" y2="15.53" gradientUnits="userSpaceOnUse"><stop stop-color="#421F8B"/><stop offset=".55" stop-color="#7230FF"/><stop offset="1" stop-color="#9773FF"/></linearGradient></defs></svg>